<svg width="580" height="400" xmlns="http://www.w3.org/2000/svg">
 <!-- Created with Method Draw - http://github.com/duopixel/Method-Draw/ -->
 <g>
  <title>background</title>
  <rect fill="#fff" id="canvas_background" height="402" width="582" y="-1" x="-1"/>
  <g display="none" overflow="visible" y="0" x="0" height="100%" width="100%" id="canvasGrid">
   <rect fill="url(#gridpattern)" stroke-width="0" y="0" x="0" height="100%" width="100%"/>
  </g>
 </g>
 <g>
  <title>Layer 1</title>
  <path d="m66,80c1,0 2,0 6,0c4,0 8,0 12,0c4,0 7,1 12,1c2,0 4,0 6,0c2,0 3,0 4,0c2,0 4.310005,0.662506 7,-1c1.203003,-0.7435 3.292892,-0.292892 4,-1c0.707108,-0.707108 0,-1 1,-2c0,0 0,-1 0,-1c0,0 0,-1 0,-1c0,-1 -2.076118,-1.617317 -3,-2c-1.306564,-0.541199 -3.152245,-1.234634 -5,-2c-1.306564,-0.541199 -3,-1 -4,-1c-1,0 -2,0 -4,0c-1,0 -2.418861,-0.581139 -4,1c-1.581139,1.581139 -3.288589,3.868286 -5,8c-2.420303,5.843124 -5.369545,16.235306 -9,25c-4.278534,10.329285 -7.102356,18.321404 -10,25c-2.320847,5.349182 -4.793938,10.087433 -7,15c-0.916016,2.039825 -2.692551,5.186005 -4,7c-0.826904,1.147263 -3.692547,4.186005 -5,6c-1.653809,2.29454 -3.418861,3.418854 -5,5c-1.581139,1.581146 -2.076122,2.61731 -3,3c-1.306564,0.541199 -2,1 -2,1c-1,0 -1,0 -1,0c0,-1 0,-1 0,-3c0,-1 0,-2 1,-5c1,-3 4,-7 10,-13c8,-8 17.807083,-16.236145 30,-26c12.802322,-10.251854 23.756294,-18.3601 31,-23c6.78894,-4.348602 12.782745,-7.568687 20,-10c3.907349,-1.316292 5.823746,-2.486259 8,-3c0.973251,-0.229752 1.292892,-0.292892 2,-1c0.707108,-0.707108 0.707108,0.292892 0,1c-0.707108,0.707108 -0.474274,0.149345 -1,1c-1.175568,1.902115 -5.06601,2.877655 -7,4c-3.118484,1.809723 -5.310211,3.718987 -8,7c-2.285873,2.788322 -4,6 -5,8c-1,2 -1,3 -1,4c0,0 -0.092216,0.496223 4,1c3.970032,0.488731 10.029968,0.488731 14,0c4.092209,-0.503777 6.75531,-4.132004 9,-8c1.809723,-3.118477 2.486252,-5.823746 3,-8c0.459503,-1.946495 0.38269,-5.076118 0,-6c-0.541199,-1.306564 -1,-1 0,-1c2,0 4.943665,0.188347 8,1c4.928207,1.308754 7,1 11,1c1,0 3,0 4,0c2,0 4,0 4,0c1,1 2,1 2,1c0,1 0.525726,2.149345 0,3c-1.175568,1.902115 -3,2 -4,3c-1,1 -2,2 -3,3c-1,1 -3,2 -5,3c-2,1 -4,1 -5,1c-1,0 -1,0 -1,0c3,0 8,0 14,0c5,0 12,0 17,0c5,0 7.21167,0.285881 10,-2c1.093674,-0.896599 1,-2 1,-3c0,-2 0.707108,-4.292892 0,-5c-0.707108,-0.707108 -3,0 -6,0c-2,0 -3,0 -4,1c-1,1 -1,2 -1,3c0,1 1.026749,1.770248 2,2c2.176254,0.513741 4,1 7,1c3,0 6.566513,-0.134491 10,-3c3.83876,-3.203735 5.486252,-5.823746 6,-8c0.229752,-0.973251 0,-3 0,-3c0,0 0.237732,-0.069031 1,3c2.932526,11.806793 4.407745,44.056732 7,68c1.628845,15.04483 4.498291,25.937958 5,32c0.247437,2.989777 0,4 0,5c0,1 -0.924103,0.96698 -4,-6c-4.880157,-11.053696 -8.158112,-17.961578 -11,-30c-2.11821,-8.972916 -3,-17 -3,-27c0,-9 0.579697,-14.156876 3,-20c1.711411,-4.131714 4.173096,-7.85273 5,-9c1.307449,-1.813995 2.486252,-2.823746 3,-5c0.459503,-1.946495 1.076126,-2.617317 2,-3c1.306564,-0.541199 1,-1 2,-1c1,0 4,0 7,0c2,0 4,2 4,2c1,2 1,3 1,3c0,1 -1.693436,2.458801 -3,3c-0.923874,0.382683 -2,1 -3,2c0,0 0.831284,-0.220535 6,-4c5.820938,-4.256371 15.633087,-7.503586 21,-15c3.134827,-4.378677 5.496216,-9.907784 6,-14c0.610931,-4.96254 0.919006,-9.107002 0,-13c-1.027496,-4.352501 -3.693451,-6.458805 -5,-7c-2.771637,-1.148048 -4,0 -4,0c-1,8 -1,17 -1,30c0,14 1.190887,21.954689 3,30c1.118652,4.974792 2,8 2,9c0,1 0,1 0,-1c0,-4 -0.236877,-9.34346 2,-15c1.325897,-3.352905 4,-6 6,-8c1,-1 2,-1 4,-1c1,0 5.729614,2.228851 10,7c3.772675,4.21508 7.262054,11.15815 13,14c3.694763,1.829926 8,1 12,1l7,-7l6,-7l2,-2" id="svg_1" stroke-width="1.5" stroke="#000" fill="none"/>
 </g>
</svg>